<?xml version="1.0" encoding="UTF-8" standalone="no"?>
<svg
   sodipodi:docname="12 - Salad (copy 1).svg"
   inkscape:version="1.1.1 (1:1.1+202109281949+c3084ef5ed)"
   id="svg831"
   version="1.1"
   viewBox="0 0 22.577778 22.577778"
   height="64pt"
   width="64pt"
   inkscape:export-filename="/media/taufikramadhan/Data/Tr Design Studio/Project Design/TR Creative Design/Icon Design/Project Hiring/Icon Icons/010 - Food/Send/1 - Line/2 - Salad.png"
   inkscape:export-xdpi="576"
   inkscape:export-ydpi="576"
   xmlns:inkscape="http://www.inkscape.org/namespaces/inkscape"
   xmlns:sodipodi="http://sodipodi.sourceforge.net/DTD/sodipodi-0.dtd"
   xmlns="http://www.w3.org/2000/svg"
   xmlns:svg="http://www.w3.org/2000/svg"
   xmlns:rdf="http://www.w3.org/1999/02/22-rdf-syntax-ns#"
   xmlns:cc="http://creativecommons.org/ns#"
   xmlns:dc="http://purl.org/dc/elements/1.1/">
  <defs
     id="defs825">
    <pattern
       y="0"
       x="0"
       height="6"
       width="6"
       patternUnits="userSpaceOnUse"
       id="EMFhbasepattern" />
    <pattern
       y="0"
       x="0"
       height="6"
       width="6"
       patternUnits="userSpaceOnUse"
       id="EMFhbasepattern-9" />
    <pattern
       y="0"
       x="0"
       height="6"
       width="6"
       patternUnits="userSpaceOnUse"
       id="EMFhbasepattern-0" />
    <pattern
       y="0"
       x="0"
       height="6"
       width="6"
       patternUnits="userSpaceOnUse"
       id="EMFhbasepattern-7" />
    <pattern
       y="0"
       x="0"
       height="6"
       width="6"
       patternUnits="userSpaceOnUse"
       id="EMFhbasepattern-2" />
    <pattern
       y="0"
       x="0"
       height="6"
       width="6"
       patternUnits="userSpaceOnUse"
       id="EMFhbasepattern-98" />
    <pattern
       y="0"
       x="0"
       height="6"
       width="6"
       patternUnits="userSpaceOnUse"
       id="EMFhbasepattern-6" />
    <pattern
       y="0"
       x="0"
       height="6"
       width="6"
       patternUnits="userSpaceOnUse"
       id="EMFhbasepattern-01" />
    <pattern
       y="0"
       x="0"
       height="6"
       width="6"
       patternUnits="userSpaceOnUse"
       id="EMFhbasepattern-07" />
    <pattern
       y="0"
       x="0"
       height="6"
       width="6"
       patternUnits="userSpaceOnUse"
       id="EMFhbasepattern-8" />
    <pattern
       y="0"
       x="0"
       height="6"
       width="6"
       patternUnits="userSpaceOnUse"
       id="EMFhbasepattern-4" />
    <pattern
       y="0"
       x="0"
       height="6"
       width="6"
       patternUnits="userSpaceOnUse"
       id="EMFhbasepattern-40" />
    <pattern
       y="0"
       x="0"
       height="6"
       width="6"
       patternUnits="userSpaceOnUse"
       id="EMFhbasepattern-08" />
    <pattern
       y="0"
       x="0"
       height="6"
       width="6"
       patternUnits="userSpaceOnUse"
       id="EMFhbasepattern-04" />
    <pattern
       y="0"
       x="0"
       height="6"
       width="6"
       patternUnits="userSpaceOnUse"
       id="EMFhbasepattern-014" />
    <pattern
       y="0"
       x="0"
       height="6"
       width="6"
       patternUnits="userSpaceOnUse"
       id="EMFhbasepattern-27" />
    <pattern
       y="0"
       x="0"
       height="6"
       width="6"
       patternUnits="userSpaceOnUse"
       id="EMFhbasepattern-09" />
    <pattern
       y="0"
       x="0"
       height="6"
       width="6"
       patternUnits="userSpaceOnUse"
       id="EMFhbasepattern-5" />
    <pattern
       y="0"
       x="0"
       height="6"
       width="6"
       patternUnits="userSpaceOnUse"
       id="EMFhbasepattern-018" />
  </defs>
  <sodipodi:namedview
     inkscape:document-rotation="0"
     inkscape:snap-global="true"
     inkscape:snap-nodes="false"
     inkscape:bbox-nodes="true"
     inkscape:snap-bbox="true"
     showguides="true"
     inkscape:snap-midpoints="true"
     inkscape:snap-smooth-nodes="true"
     inkscape:snap-intersection-paths="true"
     inkscape:object-paths="true"
     inkscape:showpageshadow="false"
     inkscape:pagecheckerboard="true"
     inkscape:window-maximized="1"
     inkscape:window-y="31"
     inkscape:window-x="0"
     inkscape:window-height="705"
     inkscape:window-width="1366"
     units="pt"
     showgrid="false"
     inkscape:current-layer="layer1"
     inkscape:document-units="pt"
     inkscape:cy="42.525177"
     inkscape:cx="22.067119"
     inkscape:zoom="2.175182"
     inkscape:pageshadow="2"
     inkscape:pageopacity="0.0"
     borderopacity="1.0"
     bordercolor="#666666"
     pagecolor="#ffffff"
     id="base">
    <inkscape:grid
       id="grid1378"
       type="xygrid" />
    <sodipodi:guide
       inkscape:locked="false"
       id="guide1380"
       orientation="78.000048,0"
       position="0.97013831,21.607643" />
    <sodipodi:guide
       inkscape:locked="false"
       id="guide1382"
       orientation="0,78.000005"
       position="0.97013831,0.97013129" />
    <sodipodi:guide
       inkscape:locked="false"
       id="guide1384"
       orientation="-78.000048,0"
       position="21.607639,0.97013129" />
    <sodipodi:guide
       inkscape:locked="false"
       id="guide1386"
       orientation="0,-78.000005"
       position="21.607639,21.607643" />
  </sodipodi:namedview>
  <metadata
     id="metadata828">
    <rdf:RDF>
      <cc:Work
         rdf:about="">
        <dc:format>image/svg+xml</dc:format>
        <dc:type
           rdf:resource="http://purl.org/dc/dcmitype/StillImage" />
      </cc:Work>
    </rdf:RDF>
  </metadata>
  <g
     transform="translate(0,-274.42223)"
     id="layer1"
     inkscape:groupmode="layer"
     inkscape:label="Icon">
    <path
       id="rect12857"
       style="color:#000000;display:inline;fill:#8b3f2f;stroke-width:1.243;stroke-linecap:round;stroke-linejoin:round;-inkscape-stroke:none"
       d="m 5.3513915,278.622 c -0.5445896,-0.30854 -1.249947,0.0974 -1.2551268,0.72327 l -0.022495,2.71323 -2.0529084,-0.53057 c -0.6059151,-0.15709 -1.18161639,0.4186 -1.02452531,1.02453 L 2.102439,286.82015 H 1.7754897 c -0.1826382,-7.3e-4 -0.3308759,0.14752 -0.3301621,0.33015 6.576e-4,0.18164 0.148527,0.3283 0.3301621,0.32759 h 0.4110954 c -0.1523321,0.25487 -0.2230307,0.56124 -0.1759982,0.87873 l 1.2217164,5.60567 c 0.1715189,0.78676 0.8273509,1.41571 1.6630091,1.41571 h 7.1761836 c 0.180631,-7e-4 0.32689,-0.14696 0.327593,-0.32759 6.58e-4,-0.18164 -0.145959,-0.32946 -0.327593,-0.33017 H 9.6890695 l 2.0599595,-2.07089 c 0.140354,-0.14036 0.157719,-0.31952 0,-0.47724 l -2.3894903,-2.38756 2.1678863,-2.16789 1.082977,1.08234 c 0.128551,0.12912 0.337786,0.12912 0.466337,0 0.129116,-0.12855 0.129116,-0.33715 0,-0.4657 l -0.755386,-0.75538 h 8.958667 c 0.180631,-7e-4 0.326889,-0.14696 0.327593,-0.32759 6.57e-4,-0.18164 -0.145959,-0.32946 -0.327593,-0.33017 h -0.519007 l -0.421373,-1.79533 c 0.420759,-1.77074 0.755531,-3.52728 1.224292,-5.25945 3e-6,-8.2e-4 3e-6,-10e-4 0,-0.002 0.156765,-0.60504 -0.417009,-1.1793 -1.021957,-1.02453 h -0.0026 l -4.046721,1.03738 -0.323095,-1.16842 c -0.0835,-0.3016 -0.32145,-0.50677 -0.594802,-0.58002 -0.273355,-0.0732 -0.583046,-0.0158 -0.806135,0.20362 l -1.616119,1.58335 -1.97968,-3.36776 c -0.158687,-0.26977 -0.440261,-0.40275 -0.723272,-0.40275 l 9.6e-5,-2e-5 c -0.283012,0 -0.5671539,0.13298 -0.7258401,0.40274 l -2.0477681,3.48276 z m 5.0982235,-1.94049 c 0.05928,0 0.118767,0.0334 0.158016,0.10018 l 2.0619,3.50588 -0.81641,0.7997 c -0.160347,-0.25935 -0.438724,-0.3899 -0.716203,-0.3899 -0.283015,0 -0.56523,0.13555 -0.723916,0.40532 l -0.163153,0.27684 -2.0015208,-1.12794 2.0432718,-3.4699 c 0.03925,-0.0667 0.09874,-0.10018 0.158015,-0.10018 z m -0.0668,1.43241 c -0.216795,-9.7e-4 -0.3927863,0.17503 -0.391826,0.39182 6.578e-4,0.21555 0.176287,0.38957 0.391826,0.38861 0.214286,-8.2e-4 0.387798,-0.17432 0.388614,-0.38861 9.86e-4,-0.21553 -0.173075,-0.39101 -0.388614,-0.39182 z m 4.981319,0.52479 c 0.07575,-10e-4 0.145669,0.05 0.171505,0.14324 l 0.786861,2.84363 -3.115331,1.76257 -1.011038,-1.71889 3.033756,-2.96954 c 0.04139,-0.0408 0.0888,-0.0603 0.134247,-0.061 z m -5.4476092,3.30802 -0.9654328,1.64118 -0.9898421,-1.70348 c 6.6e-6,-8.2e-4 6.6e-6,-6.9e-4 0,-0.002 -0.1586861,-0.26976 -0.4428254,-0.40597 -0.7258398,-0.40597 -0.2830113,0 -0.5645821,0.13556 -0.7232682,0.40532 l -1.8036825,3.06651 0.045605,-5.59861 c 9.867e-4,-0.11622 0.077661,-0.18957 0.1727884,-0.18691 l -4.61e-5,2e-5 c 0.031704,8.9e-4 0.06588,0.01 0.099564,0.0296 z m 1.2788452,-2.70808 c -0.216795,-9.6e-4 -0.392787,0.17503 -0.391826,0.39183 6.57e-4,0.21554 0.176287,0.38957 0.391826,0.38861 0.214286,-8.2e-4 0.387798,-0.17433 0.388613,-0.38861 9.87e-4,-0.21555 -0.173074,-0.39101 -0.388613,-0.39183 z m 9.563105,0.12783 c 0.121379,-0.002 0.203569,0.10006 0.169579,0.23123 -0.358591,1.32586 -0.637356,2.65167 -0.930105,3.97221 l -0.313459,-1.33606 c -0.05294,-0.30845 -0.269093,-0.53317 -0.533783,-0.63334 -0.26469,-0.10019 -0.576997,-0.0747 -0.820905,0.12144 -0.0026,10e-4 -0.0047,0.004 -0.0071,0.005 l -0.290336,0.24602 c -0.0757,-0.51406 -0.63111,-0.8421 -1.117021,-0.66932 l -0.247302,-0.89349 4.036444,-1.03609 c 0.01874,-0.005 0.03662,-0.007 0.05396,-0.007 z m -5.698167,0.87614 c -0.214286,8.2e-4 -0.387797,0.17433 -0.388613,0.38861 -9.87e-4,0.21555 0.173074,0.39101 0.388613,0.39183 0.216795,9.6e-4 0.392787,-0.17503 0.391827,-0.39183 -6.58e-4,-0.21554 -0.176288,-0.38957 -0.391827,-0.38861 z m 4.193173,0.07 c -0.216292,-6e-4 -0.391783,0.17489 -0.391181,0.39118 3.28e-4,0.21554 0.175642,0.38986 0.391181,0.38926 0.214536,-8.2e-4 0.38815,-0.17472 0.388614,-0.38926 6.58e-4,-0.21528 -0.173325,-0.39036 -0.388614,-0.39118 z m -13.5777077,0.20747 c -0.215289,-5.9e-4 -0.3903663,0.17332 -0.3911852,0.38862 6.578e-4,0.21529 0.1758962,0.38921 0.3911852,0.38861 0.214286,-8.2e-4 0.3877978,-0.17433 0.3886134,-0.38861 -6.577e-4,-0.21429 -0.1743274,-0.3878 -0.3886134,-0.38862 z m 8.1930027,0.77723 c -0.216796,-9.6e-4 -0.392787,0.17503 -0.391826,0.39183 6.58e-4,0.21554 0.176287,0.38957 0.391826,0.38861 0.214286,-8.2e-4 0.387798,-0.17433 0.388613,-0.38861 9.87e-4,-0.21555 -0.173074,-0.39101 -0.388613,-0.39183 z m -2.731857,0.0379 c 0.05927,0 0.118119,0.0334 0.15737,0.10019 l 3.166721,5.38471 H 7.8121822 l 3.1667198,-5.38471 c 0.03924,-0.0668 0.09874,-0.10019 0.158017,-0.10019 z m 6.298109,5.48491 h -2.208354 l -1.685492,-2.86546 3.567538,-2.02144 c 0.03369,-0.0191 0.06763,-0.0286 0.09956,-0.0296 v 0 c 0.09581,-0.002 0.173771,0.0705 0.174716,0.18692 z M 7.235363,282.11501 c 0.05928,0 0.1187671,0.0328 0.1580153,0.0996 l 1.1741936,2.02529 -1.5178432,2.58026 H 4.3679724 l 2.7093752,-4.60555 c 0.039248,-0.0668 0.098739,-0.0996 0.1580154,-0.0996 z m -3.1667171,0.62306 -0.027626,3.34401 -0.4342187,0.73804 H 2.782042 l -1.1497845,-4.43276 c -0.034,-0.13114 0.047562,-0.23372 0.1689373,-0.23125 z m 14.7904391,-0.55176 c 0.08438,-0.005 0.159292,0.0546 0.177288,0.1593 l 1.048293,4.47451 h -1.991244 l -0.04368,-3.99662 0.69308,-0.58902 c 0.0377,-0.0303 0.07791,-0.0461 0.116257,-0.0482 z m -15.7982675,0.96158 c -0.216542,-9.6e-4 -0.392425,0.17464 -0.3918232,0.39118 3.289e-4,0.21579 0.1760343,0.3902 0.3918232,0.38926 0.2145392,-8.2e-4 0.3881531,-0.17472 0.3886167,-0.38926 6.578e-4,-0.2153 -0.1733276,-0.39036 -0.3886167,-0.39118 z m 13.3991405,0.14773 c -0.214285,8.3e-4 -0.387798,0.17433 -0.388613,0.38862 -9.87e-4,0.21554 0.173075,0.391 0.388613,0.39182 0.216796,9.6e-4 0.392787,-0.17503 0.391828,-0.39182 -6.58e-4,-0.21555 -0.176288,-0.38957 -0.391828,-0.38862 z m -5.517028,0.10342 c -0.216795,-9.5e-4 -0.392787,0.17503 -0.391826,0.39183 6.57e-4,0.21553 0.176287,0.38956 0.391826,0.38861 0.214286,-8.2e-4 0.387798,-0.17433 0.388614,-0.38861 9.86e-4,-0.21554 -0.173075,-0.39101 -0.388614,-0.39183 z m 0.792,1.21658 c -0.216795,-9.5e-4 -0.392784,0.17504 -0.391823,0.39183 6.58e-4,0.21553 0.176284,0.38957 0.391823,0.38861 0.21429,-8.2e-4 0.387801,-0.17432 0.388616,-0.38861 9.87e-4,-0.21554 -0.173073,-0.39101 -0.388616,-0.39183 z m 7.175542,0.31218 c -0.214786,4.6e-4 -0.388791,0.17447 -0.389254,0.38926 -6.58e-4,0.21553 0.173715,0.39072 0.389254,0.39118 0.216292,6e-4 0.391787,-0.17489 0.391185,-0.39118 -3.28e-4,-0.21554 -0.175645,-0.38986 -0.391185,-0.38926 z m -2.98622,0.11498 c -0.21454,4.6e-4 -0.388439,0.17408 -0.389258,0.38862 -9.87e-4,0.21578 0.173465,0.39136 0.389258,0.39182 0.216545,5.9e-4 0.392139,-0.17528 0.391182,-0.39182 -6.58e-4,-0.2153 -0.175893,-0.38922 -0.391182,-0.38862 z m -9.4680431,0.15672 c -0.216542,-9.4e-4 -0.392425,0.17465 -0.3918232,0.39119 3.289e-4,0.2158 0.1760343,0.39021 0.3918232,0.38926 0.214536,-8.3e-4 0.3881497,-0.17472 0.3886135,-0.38926 6.578e-4,-0.21529 -0.1733244,-0.39036 -0.3886135,-0.39119 z m 3.9021961,0.39119 c -0.215789,-9.5e-4 -0.3913592,0.17347 -0.3918262,0.38926 -6.577e-4,0.21654 0.1752812,0.39214 0.3918262,0.39118 0.215289,-8.2e-4 0.389212,-0.1759 0.388613,-0.39118 -3.28e-4,-0.21453 -0.174077,-0.38844 -0.388613,-0.38926 z m -4.8901076,1.88719 -1.8409377,1.8403 -0.936528,-0.93717 c -0.00132,-10e-4 -0.00264,-0.002 -0.00385,-0.004 l -0.025699,-0.11821 c -0.061815,-0.41721 0.2507616,-0.78172 0.6725258,-0.78172 z m 1.5852859,0 h 3.6799447 l -1.8396516,1.8403 z m -0.793286,0.13745 2.1685282,2.16853 -2.1685282,2.16789 -2.1678868,-2.16789 z m 8.4428697,0.528 c -1.102305,0 -1.858775,0.97482 -1.634101,1.81332 -0.297356,0.17169 -0.530264,0.47238 -0.624351,0.81577 h -0.04561 c -0.181635,7.2e-4 -0.328304,0.14853 -0.327595,0.33016 6.59e-4,0.18064 0.146963,0.32689 0.327595,0.3276 h 0.05074 l 0.398249,2.39141 c 0.149158,0.89497 0.928484,1.55638 1.835797,1.55638 h 4.311365 c 0.907311,0 1.685994,-0.66141 1.835153,-1.55638 l 0.398894,-2.39141 h 0.05074 c 0.180632,-7e-4 0.326889,-0.14696 0.327593,-0.3276 6.59e-4,-0.18163 -0.145958,-0.32945 -0.327593,-0.33016 -0.143683,-0.69411 -0.458832,-1.24326 -0.981489,-1.50563 -0.523025,-0.65764 -1.30284,-1.11033 -1.978398,-1.12346 -0.83308,5.6e-4 -1.531716,0.39143 -1.932148,0.40789 -0.181274,0.007 -0.411908,-0.0692 -0.691795,-0.17471 -0.359287,-0.10827 -0.689252,-0.22951 -0.993055,-0.23318 z m 0,0.65776 c 0.23324,-4e-5 0.483501,0.087 0.762454,0.19205 0.496876,0.12808 0.765015,0.41515 1.024528,0.85432 0.04786,0.17477 0.227813,0.27787 0.402746,0.2306 0.175751,-0.0467 0.280275,-0.22709 0.233167,-0.40275 -0.05581,-0.20633 -0.162203,-0.37909 -0.281344,-0.52544 0.52139,-0.11373 1.006032,-0.34847 1.475447,-0.34878 0.400792,-5e-5 0.778523,0.14528 1.071417,0.39761 -0.274128,0.0449 -0.585995,0.16104 -0.811269,0.44514 -0.112317,0.14221 -0.08854,0.34841 0.05331,0.46119 0.14222,0.11237 0.331317,0.083 0.461196,-0.0539 0.282271,-0.23172 0.540179,-0.30554 0.878073,-0.20361 0.390465,0.14191 0.648715,0.50856 0.648761,0.92496 h -7.50763 c 0.07447,-0.20932 0.219215,-0.38981 0.413667,-0.50937 0.06031,-0.0157 0.19133,-0.0469 0.347504,-0.061 0.214648,-0.0195 0.451347,0.0131 0.541488,0.0752 0.148942,0.10268 0.352522,0.0655 0.456059,-0.0829 0.103877,-0.15003 0.06593,-0.35575 -0.08479,-0.45863 -0.335677,-0.19283 -0.703147,-0.21039 -1.046366,-0.1792 0.102784,-0.43585 0.49215,-0.7554 0.961575,-0.7554 z m -11.7566833,0.76566 0.2273852,0.22739 -0.1425975,0.15931 z m 5.9480372,0.68217 2.1666011,2.16724 -2.1678869,2.16789 -2.1672424,-2.16724 z m -5.2549566,0.0124 2.1556822,2.15568 -1.776705,1.77863 c -0.064427,-0.11175 -0.1135055,-0.23745 -0.1432387,-0.37385 l -0.6718844,-3.07679 z m 9.4763897,1.16905 h 7.447249 l -0.380904,2.28479 c -0.09704,0.58226 -0.596746,1.00525 -1.187036,1.00525 h -4.311365 c -0.590289,0 -1.088067,-0.42299 -1.185108,-1.00525 z m 6.325091,1.07655 c -0.155586,0.007 -0.284827,0.12243 -0.309608,0.2762 l -0.148379,0.89542 c -0.03019,0.17917 0.0906,0.34886 0.26978,0.37898 0.178932,0.0298 0.348205,-0.0909 0.378336,-0.26978 l 0.148381,-0.89798 c 0.03019,-0.17916 -0.09061,-0.34886 -0.269782,-0.37899 -0.02272,-0.004 -0.04574,-0.005 -0.06873,-0.004 z m -13.1813892,0.37492 1.8383659,1.83837 H 4.8953322 c -0.1406966,0 -0.2726319,-0.0295 -0.3924679,-0.0815 z"
       sodipodi:nodetypes="cccccccsccccscscccccccccccsccccccccccccccccccscccsccccscccccscccccsccccsccccccccccccscccsccccccssccccccccccccccccccccsccccsccccssccscccccscccccccscccccsccccccccccccccccccccccccccccccccccccccccccccccccccccccccccccscccsscccscccscccccccccccccccccssccccccccccccccccccccccssccccccccccccscc" />
  </g>
</svg>

